<svg xmlns="http://www.w3.org/2000/svg" viewBox="0 0 560 440" width="560" height="440" role="img" aria-label="Students arriving at a tech hub">

  <rect width="560" height="440" rx="0" fill="#ececec"/>
  <circle cx="460" cy="90" r="40" fill="#ffc043"/>
  <rect x="20" y="150" width="70" height="220" fill="#cbcbcb"/><rect x="96" y="110" width="60" height="260" fill="#d6d6d6"/>
  <rect x="420" y="170" width="120" height="200" fill="#cbcbcb"/>
  <rect x="30" y="166" width="14" height="16" fill="#ffffff" opacity=".7"/><rect x="58" y="166" width="14" height="16" fill="#ffffff" opacity=".7"/><rect x="30" y="196" width="14" height="16" fill="#ffffff" opacity=".7"/><rect x="58" y="196" width="14" height="16" fill="#ffffff" opacity=".7"/><rect x="30" y="226" width="14" height="16" fill="#ffffff" opacity=".7"/><rect x="58" y="226" width="14" height="16" fill="#ffffff" opacity=".7"/><rect x="30" y="256" width="14" height="16" fill="#ffffff" opacity=".7"/><rect x="58" y="256" width="14" height="16" fill="#ffffff" opacity=".7"/><rect x="30" y="286" width="14" height="16" fill="#ffffff" opacity=".7"/><rect x="58" y="286" width="14" height="16" fill="#ffffff" opacity=".7"/><rect x="30" y="316" width="14" height="16" fill="#ffffff" opacity=".7"/><rect x="58" y="316" width="14" height="16" fill="#ffffff" opacity=".7"/>
  <rect x="108" y="126" width="36" height="14" fill="#ffffff" opacity=".7"/><rect x="108" y="158" width="36" height="14" fill="#ffffff" opacity=".7"/><rect x="108" y="190" width="36" height="14" fill="#ffffff" opacity=".7"/><rect x="108" y="222" width="36" height="14" fill="#ffffff" opacity=".7"/><rect x="108" y="254" width="36" height="14" fill="#ffffff" opacity=".7"/><rect x="108" y="286" width="36" height="14" fill="#ffffff" opacity=".7"/><rect x="108" y="318" width="36" height="14" fill="#ffffff" opacity=".7"/>
  <rect x="170" y="70" width="230" height="300" fill="#000000"/>
  <rect x="186" y="100" width="40" height="28" rx="2" fill="#ffc043"/><rect x="238" y="100" width="40" height="28" rx="2" fill="#3a3a3a"/><rect x="290" y="100" width="40" height="28" rx="2" fill="#3a3a3a"/><rect x="342" y="100" width="40" height="28" rx="2" fill="#ffc043"/><rect x="186" y="140" width="40" height="28" rx="2" fill="#3a3a3a"/><rect x="238" y="140" width="40" height="28" rx="2" fill="#3a3a3a"/><rect x="290" y="140" width="40" height="28" rx="2" fill="#ffc043"/><rect x="342" y="140" width="40" height="28" rx="2" fill="#3a3a3a"/><rect x="186" y="180" width="40" height="28" rx="2" fill="#3a3a3a"/><rect x="238" y="180" width="40" height="28" rx="2" fill="#ffc043"/><rect x="290" y="180" width="40" height="28" rx="2" fill="#3a3a3a"/><rect x="342" y="180" width="40" height="28" rx="2" fill="#3a3a3a"/><rect x="186" y="220" width="40" height="28" rx="2" fill="#ffc043"/><rect x="238" y="220" width="40" height="28" rx="2" fill="#3a3a3a"/><rect x="290" y="220" width="40" height="28" rx="2" fill="#3a3a3a"/><rect x="342" y="220" width="40" height="28" rx="2" fill="#ffc043"/><rect x="186" y="260" width="40" height="28" rx="2" fill="#3a3a3a"/><rect x="238" y="260" width="40" height="28" rx="2" fill="#3a3a3a"/><rect x="290" y="260" width="40" height="28" rx="2" fill="#ffc043"/><rect x="342" y="260" width="40" height="28" rx="2" fill="#3a3a3a"/><rect x="186" y="300" width="40" height="28" rx="2" fill="#3a3a3a"/><rect x="238" y="300" width="40" height="28" rx="2" fill="#ffc043"/><rect x="290" y="300" width="40" height="28" rx="2" fill="#3a3a3a"/><rect x="342" y="300" width="40" height="28" rx="2" fill="#3a3a3a"/>
  <rect x="250" y="320" width="70" height="50" fill="#2b2b2b"/><rect x="283" y="320" width="4" height="50" fill="#000000"/>
  <rect x="216" y="40" width="138" height="30" rx="4" fill="#ffffff"/><rect x="230" y="50" width="70" height="10" rx="5" fill="#000000"/><circle cx="330" cy="55" r="8" fill="#05944f"/>
  <rect x="432" y="186" width="96" height="16" fill="#ffffff" opacity=".7"/><rect x="432" y="220" width="96" height="16" fill="#ffffff" opacity=".7"/><rect x="432" y="254" width="96" height="16" fill="#ffffff" opacity=".7"/><rect x="432" y="288" width="96" height="16" fill="#ffffff" opacity=".7"/><rect x="432" y="322" width="96" height="16" fill="#ffffff" opacity=".7"/>
  <rect x="0" y="370" width="560" height="70" fill="#2b2b2b"/>
  <rect x="20" y="402" width="44" height="6" rx="3" fill="#ffffff"/><rect x="100" y="402" width="44" height="6" rx="3" fill="#ffffff"/><rect x="180" y="402" width="44" height="6" rx="3" fill="#ffffff"/><rect x="260" y="402" width="44" height="6" rx="3" fill="#ffffff"/><rect x="340" y="402" width="44" height="6" rx="3" fill="#ffffff"/><rect x="420" y="402" width="44" height="6" rx="3" fill="#ffffff"/><rect x="500" y="402" width="44" height="6" rx="3" fill="#ffffff"/>
  <rect x="0" y="360" width="560" height="10" fill="#cbcbcb"/>
  <path d="M470 270 c-26 0 -44 20 -44 42 c0 30 44 66 44 66 s44 -36 44 -66 c0 -22 -18 -42 -44 -42z" fill="#000000"/><circle cx="470" cy="312" r="15" fill="#ffffff"/>
  <g transform="translate(0 128)">
    <g>
    <rect x="97" y="180" width="11" height="50" rx="4" fill="#000000"/>
    <rect x="112" y="180" width="11" height="50" rx="4" fill="#000000"/>
    <rect x="94" y="227" width="15" height="6" rx="3" fill="#000000"/>
    <rect x="111" y="227" width="15" height="6" rx="3" fill="#000000"/>
    <rect x="106" y="130" width="8" height="10" fill="#8d5524"/>
    <path d="M91 184 v-38 q0 -12 12 -12 h14 q12 0 12 12 v38z" fill="#276ef1"/>
    <path d="M125 142 l5 34" stroke="#276ef1" stroke-width="10" stroke-linecap="round"/><circle cx="130" cy="180" r="5" fill="#8d5524"/>
      <path d="M95 142 l-5 34" stroke="#276ef1" stroke-width="10" stroke-linecap="round"/><circle cx="90" cy="180" r="5" fill="#8d5524"/>
    <circle cx="110" cy="120" r="13" fill="#8d5524"/>
    <path d="M97 120 a13 13 0 0 1 26 0 q-4 -5 -13 -5 q-9 0 -13 5z" fill="#141414"/>
  </g>
    <rect x="80" y="132" width="16" height="40" rx="5" fill="#ffc043"/>
    <g>
    <rect x="147" y="180" width="11" height="50" rx="4" fill="#2b2b2b"/>
    <rect x="162" y="180" width="11" height="50" rx="4" fill="#2b2b2b"/>
    <rect x="144" y="227" width="15" height="6" rx="3" fill="#000000"/>
    <rect x="161" y="227" width="15" height="6" rx="3" fill="#000000"/>
    <rect x="156" y="130" width="8" height="10" fill="#5c3a21"/>
    <path d="M141 184 v-38 q0 -12 12 -12 h14 q12 0 12 12 v38z" fill="#05944f"/>
    <path d="M174 142 l10 22 l-10 6" stroke="#05944f" stroke-width="10" stroke-linecap="round" stroke-linejoin="round" fill="none"/>
      <path d="M146 142 l-4 22 l18 6" stroke="#05944f" stroke-width="10" stroke-linecap="round" stroke-linejoin="round" fill="none"/>
      <circle cx="172" cy="170" r="5" fill="#5c3a21"/><rect x="152" y="150" width="16" height="26" rx="3" fill="#000000"/>
    <circle cx="160" cy="120" r="13" fill="#5c3a21"/>
    <path d="M144 122 q-3 -18 10 -21 q6 -6 13 -1 q13 2 9 22 q-4 -9 -16 -10 q-11 1 -16 10z" fill="#141414"/>
  </g>
  </g>

</svg>
